<svg width="2389" height="1024" fill="none" xmlns="http://www.w3.org/2000/svg"><g clip-path="url(#a)"><path fill="url(#b)" d="M0 0h2389v1024H0z"/><g filter="url(#c)" fill-rule="evenodd" clip-rule="evenodd"><path d="M1388.91-50.697c-60.54 189.541-294.62 577.948-748.038 609.667-113.444 7.936-204.641-11.632-277.3-49.329-72.647-37.691-126.044-93.132-164.48-155.847-76.643-125.056-94.177-279.556-87.063-383.646l24.942 1.704c-6.886 100.744 10.33 249.593 83.437 368.879 36.439 59.456 86.667 111.434 154.677 146.719 67.997 35.279 154.488 54.245 264.043 46.581C1077.71 503.35 1305.96 126.824 1365.09-58.303l23.82 7.606Z" fill="url(#d)" fill-opacity=".3"/><path opacity=".2" d="M1199.82 99.502c59.96 82.567 182.38 197.639 409.55 352.297 442.45 301.227 520.32 724.511 505.5 893.581l59.77 5.24c16.5-188.26-69.16-633.646-531.51-948.418-225.23-153.343-340.89-263.77-394.75-337.953-27.02-37.21-36.83-63.058-38.93-78.938-1.92-14.561 2.63-17.822 3.1-18.164l.03-.018-35.66-48.258c-22.02 16.268-31.02 43.426-26.95 74.287 3.93 29.839 19.96 65.178 49.85 106.344Z" fill="url(#e)"/><path opacity=".3" d="M869.002 145.523c-93.14 98.07-173.22 229.696-203.365 385.77-60.118 311.258-224.784 486.727-346.836 565.037l-21.602-33.66c113.282-72.689 271.218-238.952 329.164-538.963 31.855-164.926 116.275-303.216 213.635-405.73C937.068 15.77 1048.4-52.323 1135.91-75.342l10.18 38.684C1067.6-16.01 962.432 47.147 869.002 145.523Z" fill="url(#f)"/><path d="M1604.96 257.863c-39.1-93.331-101.64-189.475-150.15-254.907l16.06-11.912c48.99 66.068 112.57 163.674 152.53 259.093 15.65 37.35 27.81 74.685 33.98 109.877 22.87 16.329 45.32 38.137 66.06 66.092 86.96 117.256 146.46 343.924 92.31 739.254l-19.82-2.72c53.86-393.17-6.15-613.502-88.56-724.62-14.97-20.183-30.59-36.723-46.36-50.061l.06.744c3.38 43.223-4.1 83.04-28.97 113.609-27.87 34.25-58.81 49.099-88.65 48.74-29.57-.355-55.98-15.632-75.11-37.472-37.73-43.079-50.81-116.972.15-164.867 35.31-33.181 100.31-39.396 165.49-3.467-6.42-27.92-16.47-57.398-29.02-87.383Zm34 113.539c-64.42-42.579-127.72-35.42-156.77-8.115-40.54 38.105-32.01 99.201 1.2 137.116 16.34 18.657 37.72 30.379 60.3 30.651 22.32.268 47.88-10.627 72.89-41.366 20.5-25.18 27.7-59.176 24.55-99.422a272.805 272.805 0 0 0-2.17-18.864Z" fill="url(#g)"/></g><path d="M1062.22 968.959c11.93 43.321 56.23 78.391 56.23 78.391s-1.39-2.35-21.03-51.165c-24.89-61.902-51.28-85.459-62.13-89.198 4.01 2.607 15.01 18.652 26.93 61.972Z" fill="url(#h)"/><path d="M1044.52 1005.95c24.37 37.76 77.15 57.93 77.15 57.93s-2.03-1.82-35.4-42.51c-42.32-51.586-74.55-66.149-86.02-66.462 4.61 1.285 19.91 13.294 44.27 51.042Z" fill="url(#i)"/><path d="M1095.2 947.669c-2.29 44.872 28.75 92.091 28.75 92.091s-.58-2.67-3.89-55.187c-4.19-66.589-21.84-97.242-30.97-104.201 2.99 3.736 8.39 22.425 6.11 67.297Z" fill="url(#j)"/><path d="M1136.25 954.372c-16.36 41.848-1.83 96.458-1.83 96.458s.29-2.72 13.75-53.586c17.07-64.501 10.02-99.16 3.56-108.648 1.65 4.489.87 23.928-15.48 65.776Z" fill="url(#k)"/><path d="M1177.57 974.939c-32.4 31.131-42.12 86.791-42.12 86.791s1.41-2.34 34.96-42.87c42.55-51.395 50.68-85.817 48.8-97.139-.38 4.768-9.24 22.088-41.64 53.218Z" fill="url(#l)"/><path d="M1184.76 1022.05c-37.39 24.92-56.78 77.99-56.78 77.99s1.79-2.06 41.98-36.02c50.96-43.07 65.04-75.518 65.19-86.995-1.22 4.626-13 20.107-50.39 45.025Z" fill="url(#m)"/><path d="M1770.1 42.022c12.34-37.536 52.77-66.43 52.77-66.43s-1.32 2.004-20.68 44.036c-24.54 53.297-48.73 72.85-58.42 75.665 3.63-2.117 13.99-15.736 26.33-53.271Z" fill="url(#n)"/><path d="M1741.29 8.58c28.26-27.625 77.45-34.637 77.45-34.637s-2.09 1.17-38.64 29.553c-46.35 35.989-76.83 42.193-86.73 40.224 4.21-.203 19.67-7.517 47.92-35.14Z" fill="url(#o)"/><path d="M1798.87 54.793c5.07-39.187 39.34-75.166 39.34-75.166s-.92 2.217-12.03 47.139c-14.08 56.96-34.17 80.712-43.16 85.3 3.17-2.763 10.78-18.086 15.85-57.273Z" fill="url(#p)"/><path d="M1835.44 55.44c-7.57-38.779 13.57-83.747 13.57-83.747s-.17 2.395 3.49 48.525c4.64 58.492-6.91 87.374-13.99 94.569 2.14-3.624 4.51-20.567-3.07-59.346Z" fill="url(#q)"/><path d="M1874.43 44.134c-23.14-32.026-22.81-81.716-22.81-81.716s.85 2.246 23.52 42.588c28.74 51.154 30.37 82.216 26.96 91.717.42-4.186-4.53-20.564-27.67-52.59Z" fill="url(#r)"/><path d="M1888.05 4.5c-28.44-27.433-36.88-76.4-36.88-76.4s1.23 2.06 30.67 37.763c37.33 45.27 44.42 75.556 42.74 85.51-.33-4.194-8.09-19.44-36.53-46.873Z" fill="url(#s)"/><path d="M649.117 79.312c-19.469-59.206-83.236-104.781-83.236-104.781s2.084 3.162 32.615 69.46c38.712 84.066 76.869 114.907 92.159 119.347-5.734-3.339-22.068-24.82-41.538-84.026Z" fill="url(#t)"/><path d="M683.552 16.563C638.989-27.01 561.394-38.07 561.394-38.07s3.307 1.846 60.955 46.614c73.098 56.767 121.174 66.553 136.791 63.448-6.628-.322-31.024-11.858-75.588-55.43Z" fill="url(#u)"/><path d="M603.736 99.457c-7.992-61.81-62.054-118.561-62.054-118.561s1.453 3.498 18.975 74.353c22.218 89.845 53.896 127.309 68.079 134.545-5.003-4.358-17.009-28.526-25-90.337Z" fill="url(#v)"/><path d="M546.048 100.479C558.002 39.311 524.65-31.618 524.65-31.618s.272 3.777-5.499 76.538c-7.319 92.262 10.894 137.818 22.062 149.166-3.369-5.716-7.12-32.44 4.835-93.607Z" fill="url(#w)"/><path d="M484.555 82.644c36.507-50.514 35.978-128.892 35.978-128.892s-1.338 3.543-37.094 67.175c-45.338 80.686-47.911 129.681-42.532 144.667-.661-6.603 7.142-32.436 43.648-82.95Z" fill="url(#x)"/><path d="M463.068 20.129c44.856-43.27 58.183-120.508 58.183-120.508s-1.942 3.251-48.378 59.565c-58.88 71.406-70.069 119.175-67.422 134.876.516-6.615 12.76-30.663 57.617-73.933Z" fill="url(#y)"/><path d="M1554.24 403.887c-85.41 118.884-227.75 162.734-317.94 97.943-90.19-64.791-94.06-213.689-8.66-332.572 85.41-118.884 227.76-162.734 317.94-97.943 90.19 64.791 94.07 213.689 8.66 332.572Z" fill="url(#z)"/><path fill-rule="evenodd" clip-rule="evenodd" d="M1264.1 494.085c7.54 3.427 10.88 12.32 7.45 19.862-17.38 38.255-52.21 99.617-100.68 160.777-48.41 61.082-111.19 122.927-184.728 160.943-86.726 44.832-158.54 107.644-205.064 169.853-23.262 31.1-39.919 61.67-49.103 89.4-9.228 27.86-10.558 51.73-4.812 70.28 2.451 7.92-1.977 16.32-9.891 18.77-7.913 2.45-16.315-1.98-18.766-9.89-8.226-26.56-5.407-57.2 4.991-88.59 10.442-31.53 28.886-64.95 53.557-97.94 49.338-65.97 124.706-131.695 215.312-178.533 68.324-35.321 127.984-93.62 174.994-152.927 46.94-59.229 80.5-118.499 96.88-154.555 3.43-7.542 12.32-10.877 19.86-7.45Z" fill="url(#A)"/><path d="M1409.37 326.396c-4.92 80.595-114.23 163.316-159.69 187.479 38.89-33.283 55.43-99.534 83.16-164.071 12.36-28.774 81.45-104.004 76.53-23.408Z" fill="url(#B)"/><path d="M1390.83 356.128c-18.58 3.149-27.96-16.088-30.32-26.099-7.86-7.698-22.78-27.244-19.62-43.849 3.01-15.851 17.95-16.406 26.02-14.539-1.94-1.004-4.93-4.899-6.92-15.39-2.44-12.816 5.77-14.83 10.17-14.235 18.06-23.828 30.38-2.504 34.29 11.137 8.43-4.323 26.89-12.076 33.3-8.504 6.41 3.573 4.06 10.409 2.09 13.381 1.78-.253 5.92 1.056 8.28 8.312 2.35 7.256-4.33 11.637-7.96 12.921 2.86.445 8.92 3.165 10.36 10.485 1.43 7.32-8.94 9.898-14.31 10.272 1.81 5.671 5.25 18.88 4.54 26.35-.72 7.47-11.73 8.546-17.15 8.151 2.98.436 8.45 2.967 6.44 9.599-2 6.632-7.77 6.339-10.41 5.363l-4.06 8.012c-.51-1.768-6.17-4.517-24.74-1.367Z" fill="url(#C)"/><path fill-rule="evenodd" clip-rule="evenodd" d="M1366.91 271.641c-.11-.055-.22-.12-.33-.194-1.22-.797-2.78-2.698-4.24-6.493-.85-2.208-1.66-5.057-2.35-8.703-2.44-12.816 5.77-14.83 10.17-14.235 15.67-20.664 27.01-7.371 32.29 5.421a54.283 54.283 0 0 1 2 5.716c1.54-.789 3.41-1.692 5.48-2.62 9.28-4.155 22.58-8.804 27.82-5.884 3.44 1.917 4.36 4.773 4.16 7.468-.16 2.328-1.16 4.536-2.07 5.913 1.16-.165 3.34.337 5.36 2.737 1.07 1.268 2.1 3.066 2.92 5.575 1.19 3.669.07 6.603-1.8 8.773-1.82 2.122-4.36 3.513-6.16 4.148 1.62.253 4.28 1.239 6.54 3.386 1.71 1.633 3.2 3.937 3.82 7.099.99 5.044-3.63 7.836-8.35 9.207-2.13.619-4.29.949-5.96 1.065a112.86 112.86 0 0 1 1.68 5.872c1.67 6.417 3.38 14.994 2.86 20.478-.37 3.849-3.47 6-7.14 7.128-3.44 1.06-7.39 1.215-10.01 1.023 2.32.34 6.14 1.947 6.78 5.769.18 1.089.11 2.359-.34 3.83-2 6.632-7.77 6.339-10.41 5.363l-4.06 8.012c-.23-.812-1.55-1.831-4.71-2.39-3.72-.659-9.99-.68-20.03 1.023-18.58 3.149-27.96-16.088-30.32-26.099-7.86-7.698-22.78-27.244-19.62-43.849 2.13-11.202 10.21-14.764 17.62-15.232 2.91-.184 5.72.112 8.03.61.12.027.24.055.37.083Zm46.04 77.763 3.75-7.405 5.02 1.857c.12.045.4.123.76.146.35.022.62-.016.8-.073a.818.818 0 0 0 .36-.215c.11-.113.4-.461.66-1.329.13-.417.16-.702.17-.873.01-.164-.01-.24-.01-.251-.01-.01-.02-.03-.05-.06-.11-.108-.33-.281-.71-.45-.38-.169-.75-.26-.97-.293l1.3-11.921c2.22.162 5.49-.009 8.04-.844 2.61-.856 2.69-1.691 2.7-1.88v-.012c.27-2.799-.25-7.232-1.23-12.096-.95-4.705-2.2-9.212-3.04-11.863l-2.32-7.277 7.62-.53c2.21-.155 5.25-.777 7.35-1.868 1-.525 1.4-.954 1.5-1.109 0-.033-.01-.084-.02-.156-.41-2.112-1.43-3.427-2.52-4.298-1.2-.964-2.44-1.345-2.87-1.413l-1.08-11.586c1.1-.388 2.67-1.293 3.64-2.438.44-.52.66-.968.75-1.34.08-.327.12-.831-.14-1.634-.95-2.929-1.96-3.859-2.4-4.128l-12.58 1.788 7.41-11.144c.23-.347.52-.895.75-1.537.23-.646.34-1.227.35-1.684 0-.431-.08-.656-.15-.78-.05-.097-.24-.417-.96-.817.01.004 0 .003-.02-.002-.14-.039-1.01-.285-3.15-.059-2.22.234-4.97.88-8.01 1.835-6.06 1.903-12.46 4.773-16.46 6.827l-6.5 3.332-2.01-7.02c-.87-3.045-2.21-6.491-3.93-9.564-1.76-3.139-3.69-5.477-5.56-6.783-1.68-1.165-3.15-1.447-4.86-.93-2.04.619-5.24 2.645-9.38 8.113l-2.12 2.79-3.47-.468c-1.16-.156-2.32.149-2.88.638v.001c-.17.157-1.57 1.394-.6 6.531.93 4.877 2.03 7.881 2.93 9.628.67 1.315 1.12 1.7 1.11 1.705 0 .002-.08-.06-.25-.148l-.98 2.68c.04.012.09.025.13.038l-.6 5.881c-.58.04-1.13-.037-1.65-.188l-1.02 2.759c-3.32-.769-7.8-.945-11.47.409-3.24 1.193-6.2 3.645-7.3 9.404-1.19 6.28.99 13.807 5.06 21.275 3.99 7.327 9.3 13.672 12.87 17.168l1.24 1.216.4 1.689c1.02 4.328 3.6 10.669 7.75 15.413 4 4.567 9.04 7.285 15.72 6.151 9.59-1.626 16.32-1.818 20.96-1.19.75.101 1.47.228 2.17.382Zm26.84-85.439c.01-.002.03.003.08.023a.262.262 0 0 1-.08-.023Zm4.86 27.14v-.007.007Z" fill="url(#D)"/><path d="M1139.29 417.008c55.7 25.49 103.51 61.102 116.14 93.693-24.36-22.692-78.11-38.817-139.21-57.983-61.1-19.167-100.32-58.055-90.86-66.539 20.22-18.129 73.55 12.349 113.93 30.829Z" fill="#FDEC02"/><path d="M1420.31 433.689c-48.92 18.652-116.23 54.402-173.7 76.134 233.11-58.469 283.93-32.381 318.96-60.518 35.04-28.137 35.99-70.674 21.51-78.698-11.58-6.419-25.61 21.421-44.29 31.504-26.9 14.52-93.25 20.429-122.48 31.578Z" fill="#FDEC02"/><path d="M1429.73 546.055c-71.13-88.336-149.94-61.478-180.45-37.006 56.17-15.758 92.87-21.674 143.02 65.318 40.11 69.593 74.37 100.261 82.75 95.284 8.39-4.977 25.8-35.259-45.32-123.596Z" fill="#FDEC02"/><path d="M1274.5 386.763c11.03 55.83-10.12 106.884-18.05 122.555-18.07-170.426-80.68-198.702-90.59-206.657-7.93-6.364-5.62-11.072-3.47-12.63 34.15-15.847 98.33 26.944 112.11 96.732Z" fill="#FDEC02"/><path d="M968.462 745.158c10.677 133.675-82.974 188.117-169.084 213.616C798.58 483.809 927 539 991 528c-27.304 8.925-29.5 130-22.538 217.158Z" fill="url(#E)"/><path d="M1120.5 759.464c-98.28 13.037-197.502 89.425-256.525 158.757 403.035 53.625 471.335-153.062 470.745-213.71-16.07 13.215-127.47 43.444-214.22 54.953Z" fill="url(#F)"/><path d="M1250.5 472.5c-1.2 23.6-12.17 15.167-17.5 8 1.17 3.5-.4 6.3 8 25.5s47.17 4.667 62.5-9.5c8.5-5.333 19.1-17 7.5-13-14 4.167-41.48 11.4-37.88 3-14.86-2-9.45-3.667-7.62-11.5-4.5-10.667-13.8-26.1-15-2.5Z" fill="#FDEC02"/></g><defs><radialGradient id="b" cx="0" cy="0" r="1" gradientUnits="userSpaceOnUse" gradientTransform="rotate(122.754 610.12 510.444) scale(1570.15 1700.76)"><stop stop-color="#0F770E"/><stop offset=".594" stop-color="#002F26"/><stop offset="1"/></radialGradient><radialGradient id="h" cx="0" cy="0" r="1" gradientUnits="userSpaceOnUse" gradientTransform="scale(3750.45 719.671) rotate(90 -.192 .503)"><stop stop-color="#0B7128"/><stop offset="0" stop-color="#00B332" stop-opacity=".979"/><stop offset="1" stop-color="#0B7128" stop-opacity="0"/></radialGradient><radialGradient id="i" cx="0" cy="0" r="1" gradientUnits="userSpaceOnUse" gradientTransform="scale(3750.45 719.671) rotate(90 -.192 .503)"><stop stop-color="#0B7128"/><stop offset="0" stop-color="#00B332" stop-opacity=".979"/><stop offset="1" stop-color="#0B7128" stop-opacity="0"/></radialGradient><radialGradient id="j" cx="0" cy="0" r="1" gradientUnits="userSpaceOnUse" gradientTransform="scale(3750.45 719.671) rotate(90 -.192 .503)"><stop stop-color="#0B7128"/><stop offset="0" stop-color="#00B332" stop-opacity=".979"/><stop offset="1" stop-color="#0B7128" stop-opacity="0"/></radialGradient><radialGradient id="k" cx="0" cy="0" r="1" gradientUnits="userSpaceOnUse" gradientTransform="scale(3750.45 719.671) rotate(90 -.192 .503)"><stop stop-color="#0B7128"/><stop offset="0" stop-color="#00B332" stop-opacity=".979"/><stop offset="1" stop-color="#0B7128" stop-opacity="0"/></radialGradient><radialGradient id="l" cx="0" cy="0" r="1" gradientUnits="userSpaceOnUse" gradientTransform="scale(3750.45 719.671) rotate(90 -.192 .503)"><stop stop-color="#0B7128"/><stop offset="0" stop-color="#00B332" stop-opacity=".979"/><stop offset="1" stop-color="#0B7128" stop-opacity="0"/></radialGradient><radialGradient id="m" cx="0" cy="0" r="1" gradientUnits="userSpaceOnUse" gradientTransform="scale(3750.45 719.671) rotate(90 -.192 .503)"><stop stop-color="#0B7128"/><stop offset="0" stop-color="#00B332" stop-opacity=".979"/><stop offset="1" stop-color="#0B7128" stop-opacity="0"/></radialGradient><radialGradient id="n" cx="0" cy="0" r="1" gradientUnits="userSpaceOnUse" gradientTransform="scale(3750.45 719.671) rotate(90 -.192 .503)"><stop stop-color="#0B7128"/><stop offset="0" stop-color="#00B332" stop-opacity=".979"/><stop offset="1" stop-color="#0B7128" stop-opacity="0"/></radialGradient><radialGradient id="o" cx="0" cy="0" r="1" gradientUnits="userSpaceOnUse" gradientTransform="scale(3750.45 719.671) rotate(90 -.192 .503)"><stop stop-color="#0B7128"/><stop offset="0" stop-color="#00B332" stop-opacity=".979"/><stop offset="1" stop-color="#0B7128" stop-opacity="0"/></radialGradient><radialGradient id="p" cx="0" cy="0" r="1" gradientUnits="userSpaceOnUse" gradientTransform="scale(3750.45 719.671) rotate(90 -.192 .503)"><stop stop-color="#0B7128"/><stop offset="0" stop-color="#00B332" stop-opacity=".979"/><stop offset="1" stop-color="#0B7128" stop-opacity="0"/></radialGradient><radialGradient id="q" cx="0" cy="0" r="1" gradientUnits="userSpaceOnUse" gradientTransform="scale(3750.45 719.671) rotate(90 -.192 .503)"><stop stop-color="#0B7128"/><stop offset="0" stop-color="#00B332" stop-opacity=".979"/><stop offset="1" stop-color="#0B7128" stop-opacity="0"/></radialGradient><radialGradient id="r" cx="0" cy="0" r="1" gradientUnits="userSpaceOnUse" gradientTransform="scale(3750.45 719.671) rotate(90 -.192 .503)"><stop stop-color="#0B7128"/><stop offset="0" stop-color="#00B332" stop-opacity=".979"/><stop offset="1" stop-color="#0B7128" stop-opacity="0"/></radialGradient><radialGradient id="s" cx="0" cy="0" r="1" gradientUnits="userSpaceOnUse" gradientTransform="scale(3750.45 719.671) rotate(90 -.192 .503)"><stop stop-color="#0B7128"/><stop offset="0" stop-color="#00B332" stop-opacity=".979"/><stop offset="1" stop-color="#0B7128" stop-opacity="0"/></radialGradient><radialGradient id="t" cx="0" cy="0" r="1" gradientUnits="userSpaceOnUse" gradientTransform="scale(3750.45 719.671) rotate(90 -.192 .503)"><stop stop-color="#0B7128"/><stop offset="0" stop-color="#00B332" stop-opacity=".979"/><stop offset="1" stop-color="#0B7128" stop-opacity="0"/></radialGradient><radialGradient id="u" cx="0" cy="0" r="1" gradientUnits="userSpaceOnUse" gradientTransform="scale(3750.45 719.671) rotate(90 -.192 .503)"><stop stop-color="#0B7128"/><stop offset="0" stop-color="#00B332" stop-opacity=".979"/><stop offset="1" stop-color="#0B7128" stop-opacity="0"/></radialGradient><radialGradient id="v" cx="0" cy="0" r="1" gradientUnits="userSpaceOnUse" gradientTransform="scale(3750.45 719.671) rotate(90 -.192 .503)"><stop stop-color="#0B7128"/><stop offset="0" stop-color="#00B332" stop-opacity=".979"/><stop offset="1" stop-color="#0B7128" stop-opacity="0"/></radialGradient><radialGradient id="w" cx="0" cy="0" r="1" gradientUnits="userSpaceOnUse" gradientTransform="scale(3750.45 719.671) rotate(90 -.192 .503)"><stop stop-color="#0B7128"/><stop offset="0" stop-color="#00B332" stop-opacity=".979"/><stop offset="1" stop-color="#0B7128" stop-opacity="0"/></radialGradient><radialGradient id="x" cx="0" cy="0" r="1" gradientUnits="userSpaceOnUse" gradientTransform="scale(3750.45 719.671) rotate(90 -.192 .503)"><stop stop-color="#0B7128"/><stop offset="0" stop-color="#00B332" stop-opacity=".979"/><stop offset="1" stop-color="#0B7128" stop-opacity="0"/></radialGradient><radialGradient id="y" cx="0" cy="0" r="1" gradientUnits="userSpaceOnUse" gradientTransform="scale(3750.45 719.671) rotate(90 -.192 .503)"><stop stop-color="#0B7128"/><stop offset="0" stop-color="#00B332" stop-opacity=".979"/><stop offset="1" stop-color="#0B7128" stop-opacity="0"/></radialGradient><radialGradient id="z" cx="0" cy="0" r="1" gradientUnits="userSpaceOnUse" gradientTransform="matrix(-108.16704 163.96296 -111.74353 -73.71766 1390.94 286.572)"><stop stop-color="#FDEC02" stop-opacity=".42"/><stop offset=".422" stop-color="#FDEC02" stop-opacity=".21"/><stop offset=".729" stop-color="#FDEC02" stop-opacity=".06"/><stop offset="1" stop-color="#FDEC02" stop-opacity="0"/></radialGradient><radialGradient id="B" cx="0" cy="0" r="1" gradientUnits="userSpaceOnUse" gradientTransform="rotate(-56.407 1048.922 -982.103) scale(158.802 67.3346)"><stop stop-color="#FFE700"/><stop offset="1" stop-color="#F8B001"/></radialGradient><radialGradient id="C" cx="0" cy="0" r="1" gradientUnits="userSpaceOnUse" gradientTransform="matrix(39.85795 35.86874 -49.97252 55.5303 1377.67 333.084)"><stop stop-color="#F8AE00"/><stop offset="1" stop-color="#FDEC01"/></radialGradient><linearGradient id="d" x1="1628" y1="222" x2="1452.73" y2="-224.67" gradientUnits="userSpaceOnUse"><stop stop-color="#0B7128"/><stop offset="1" stop-color="#0B7128" stop-opacity="0"/></linearGradient><linearGradient id="e" x1="1163" y1="-133" x2="2399" y2="1535.5" gradientUnits="userSpaceOnUse"><stop stop-color="#0EA337"/><stop offset="1" stop-color="#06511B" stop-opacity="0"/></linearGradient><linearGradient id="f" x1="832.5" y1="-9.5" x2="423.5" y2="1064" gradientUnits="userSpaceOnUse"><stop stop-color="#0B7128"/><stop offset="1" stop-color="#0B7128" stop-opacity="0"/></linearGradient><linearGradient id="g" x1="1509.08" y1="-19" x2="1409.45" y2="965.177" gradientUnits="userSpaceOnUse"><stop stop-color="#0B7128"/><stop offset="1" stop-color="#0B7128" stop-opacity="0"/></linearGradient><linearGradient id="A" x1="1342.5" y1="456.132" x2="1023.13" y2="970.043" gradientUnits="userSpaceOnUse"><stop stop-color="#039200"/><stop offset="1" stop-color="#039200" stop-opacity="0"/></linearGradient><linearGradient id="D" x1="1446.63" y1="233.982" x2="1362.01" y2="368.651" gradientUnits="userSpaceOnUse"><stop stop-color="#fff" stop-opacity=".68"/><stop offset="1" stop-color="#fff" stop-opacity="0"/></linearGradient><linearGradient id="E" x1="1053.68" y1="508.485" x2="859.212" y2="903.38" gradientUnits="userSpaceOnUse"><stop stop-color="#027100"/><stop offset="1" stop-color="#027100" stop-opacity="0"/></linearGradient><linearGradient id="F" x1="1446.14" y1="435.205" x2="1113.65" y2="1001.97" gradientUnits="userSpaceOnUse"><stop stop-color="#048E02"/><stop offset="1" stop-color="#048E02" stop-opacity="0"/></linearGradient><clipPath id="a"><path fill="#fff" d="M0 0h2389v1024H0z"/></clipPath><filter id="c" x="102.58" y="-89.129" width="2081.93" height="1447.75" filterUnits="userSpaceOnUse" color-interpolation-filters="sRGB"><feFlood flood-opacity="0" result="BackgroundImageFix"/><feBlend in="SourceGraphic" in2="BackgroundImageFix" result="shape"/><feGaussianBlur stdDeviation="4" result="effect1_foregroundBlur_103_2"/></filter></defs></svg>