<svg width="2389" height="1024" fill="none" xmlns="http://www.w3.org/2000/svg"><g clip-path="url(#a)"><path fill="url(#b)" d="M0 0h2389v1024H0z"/><g opacity=".9"><path opacity=".8" fill-rule="evenodd" clip-rule="evenodd" d="M1254.94 1031.25c-92.89 106.54-172.74 148.76-227.31 177.61-16.05 8.49-29.911 15.82-41.275 23.29H2482.46c170.25 34.29 393.08 22.65 242.09-208.08-77.03 21.96-224.83 18.73-351.57 7.18H1254.94Zm1276.5-227.004a2958.092 2958.092 0 0 0-48.98-45.941c-380.51-349.266-607.52-350.241-800.22-207.197 185.95 11.404 407.66 65.943 690.74 183.471 60.49 25.113 113.07 48.291 158.46 69.667Z" fill="url(#c)"/><path opacity=".8" fill-rule="evenodd" clip-rule="evenodd" d="m2482.76 1229.15.3.06c42.42 8.54 88.06 14.21 130.29 14.34 42.29.12 80.87-5.32 109.34-18.77 28.31-13.38 46.45-34.56 48.68-66.24 2.22-31.68-11.41-74.4-48.13-130.98-38.84 10.66-94.46 15.18-155.81 15.67-62.5.49-131.18-3.21-194.58-8.98H1256.3c-92.86 106.19-172.75 148.44-227.27 177.26-12.08 6.39-22.83 12.08-32.185 17.64H2482.76Zm-1496.405 3c1.524-1 3.093-2 4.705-3 10.42-6.46 22.67-12.94 36.57-20.29 54.57-28.85 134.42-71.07 227.31-177.61h1118.04c126.74 11.55 274.54 14.78 351.57-7.18 150.99 230.73-71.84 242.37-242.09 208.08H986.355ZM2516.13 793.786a3116.919 3116.919 0 0 0-35.69-33.271c-190.11-174.491-341.5-261.623-469.11-287.485-124.46-25.221-226.66 7.763-320.65 75.616 184.68 12.522 404.34 67.285 683.45 183.162 53.3 22.126 100.46 42.755 142 61.978Zm8.52 3.962a3015.266 3015.266 0 0 0-42.19-39.443C2104.43 411.308 1877.9 408.091 1686 548.338c-1.26.917-2.51 1.84-3.76 2.77 1.55.095 3.1.193 4.65.294 184.99 12.023 405.36 66.628 686.09 183.177 56.75 23.559 106.54 45.416 149.96 65.679 2.86 1.337 5.69 2.666 8.5 3.988-2.24-2.156-4.51-4.322-6.79-6.498Z" fill="#FFF3C7" fill-opacity=".3"/><path opacity=".8" fill-rule="evenodd" clip-rule="evenodd" d="M3553.33 1228.86c-56.27-29.75-139.43-73.72-236.05-187.78-43.36-51.186-84.36-102.665-124.11-152.563-269.02-337.765-480.34-603.088-973.7-213.746 49.11 17.793 100.22 37.684 153.51 59.808 732.39 304.061 305.16 324.471 0 296.671h-507.95c-167.74 243.12 60.12 255.81 233.47 220.9h1496.11c-11.37-7.47-25.23-14.8-41.28-23.29Z" fill="url(#d)"/><path d="M2000.43 509.109c44.06 222.108 263.33 272.38 367.46 269.752 41.71-180.861-5.88-379.855-138.57-496.694-169.32-149.08-327.28-48.222-343.32-.049 34.13-9.67 70.36 4.882 114.43 226.991Z" fill="url(#e)"/><path d="M2744.28 509.109c-44.06 222.108-272.27 272.38-376.39 269.752-190.29-85.865-73.53-332.221 41.71-433.365 163.5-143.5 330.96-167.674 347-119.5-34.13-9.67 31.75 61.004-12.32 283.113Z" fill="url(#f)"/><path opacity=".5" d="M2306.53 708.437c-12.77 64.496-136.92 94.261-277.3 66.482-140.38-27.779-243.84-102.583-231.08-167.078 12.76-64.496 136.91-94.261 277.3-66.482 140.38 27.778 243.84 102.582 231.08 167.078Z" fill="url(#g)"/><path opacity=".9" d="M685.99 894.967C514.054 986.661 372.897 1005.94 302 1026.99h2071.51c305.24 27.78 732.57 7.38 0-296.388C1457.79 350.89 1184.13 629.307 685.99 894.967Z" fill="url(#h)"/><path opacity=".8" d="M2534.64 788.72c-714.91-216.791-1270.6-49.946-1459.08 60.575 591.23-223.278 1143.17-123.829 1345.24-46.194 335.82 85.536 828.75 202.409 113.84-14.381Z" fill="url(#i)"/><path opacity=".8" d="M2568.22 852.992c-480.2-195.83-886.35-106.888-1029.4-37.938 436.61-127.539 814.01-25.194 948.14 41.92 227.17 80.268 561.46 191.846 81.26-3.982Z" fill="url(#j)"/><path opacity=".8" d="M2571.63 856.683c-385.99-216.385-746.57-226.989-878.62-205.243 391.91-10.222 702.18 124.918 808.33 193.766 184.26 93.986 456.29 227.864 70.29 11.477Z" fill="url(#k)"/><path opacity=".89" d="M685.99 894.967C514.054 986.661 372.897 1005.94 302 1026.99h2071.51c305.24 27.78 732.57 7.38 0-296.388C1457.79 350.89 1184.13 629.307 685.99 894.967Z" fill="url(#l)"/><path d="M685.99 894.967C514.054 986.661 372.897 1005.94 302 1026.99h2071.51c305.24 27.78 732.57 7.38 0-296.388C1457.79 350.89 1184.13 629.307 685.99 894.967Z" fill="url(#m)"/><path fill-rule="evenodd" clip-rule="evenodd" d="M2373.51 1026.99c305.24 27.78 732.57 7.38 0-296.388C1568.15 396.65 1259.41 571.76 857.821 799.54c-55.028 31.211-111.799 63.412-171.831 95.427-133.779 71.345-248.925 98.848-326.839 117.463-17.46 4.17-33.051 7.89-46.562 11.56-3.686 1-7.217 2-10.589 3h2071.51Zm-2049.112-3H2373.64l.14.01c76.23 6.94 160.04 10.86 231.4 8.12 35.69-1.38 68.2-4.41 95.06-9.55 26.96-5.16 47.87-12.37 60.66-21.85 6.36-4.716 10.56-9.875 12.61-15.476 2.04-5.559 2.07-11.848-.42-19.068-5.06-14.651-20.41-32.785-49.42-54.815-57.85-43.944-168.19-102.054-351.31-177.988-457.52-189.716-754.21-214.84-998.54-159.677-185.59 41.901-341.07 130.083-514.246 228.306-55.086 31.243-111.964 63.503-172.172 95.612-134.172 71.554-249.858 99.181-327.751 117.786-12.8 3.05-24.579 5.87-35.253 8.59Z" fill="#FFF3C7" fill-opacity=".3"/><path opacity=".8" d="M2568.29 975.237c9.65 167.553-298.13 321.553-687.45 343.973-389.32 22.42-712.74-95.23-722.39-262.78-9.65-167.553 298.13-321.556 687.45-343.977 389.32-22.42 712.74 95.232 722.39 262.784Z" fill="url(#n)"/></g></g><defs><radialGradient id="b" cx="0" cy="0" r="1" gradientUnits="userSpaceOnUse" gradientTransform="matrix(-1190.50249 -1541.9982 2282.59017 -1762.27784 2257.5 845)"><stop stop-color="#FF001F"/><stop offset=".24" stop-color="#9C005E"/><stop offset=".516" stop-color="#56005E"/><stop offset=".755" stop-color="#230050"/><stop offset="1" stop-color="#00113C"/></radialGradient><radialGradient id="c" cx="0" cy="0" r="1" gradientUnits="userSpaceOnUse" gradientTransform="matrix(-414.68474 -1049.35342 3745.76165 -1480.25457 1441.04 1093.96)"><stop stop-color="#FFD54A"/><stop offset="1" stop-color="#FFAA28"/></radialGradient><radialGradient id="d" cx="0" cy="0" r="1" gradientUnits="userSpaceOnUse" gradientTransform="matrix(254.91202 -1049.35174 2513.77206 610.65387 2676.1 1093.96)"><stop stop-color="#FFD54A"/><stop offset="1" stop-color="#FFAA28"/></radialGradient><radialGradient id="e" cx="0" cy="0" r="1" gradientUnits="userSpaceOnUse" gradientTransform="rotate(58.288 902.357 2452.044) scale(1044.43 1586.22)"><stop stop-color="#FFF3CA" stop-opacity=".75"/><stop offset="1" stop-color="#FFC815" stop-opacity=".85"/></radialGradient><radialGradient id="f" cx="0" cy="0" r="1" gradientUnits="userSpaceOnUse" gradientTransform="rotate(58.288 902.357 2452.044) scale(1044.43 1586.22)"><stop stop-color="#FFF3CA" stop-opacity=".75"/><stop offset="1" stop-color="#FFC815" stop-opacity=".85"/></radialGradient><radialGradient id="g" cx="0" cy="0" r="1" gradientUnits="userSpaceOnUse" gradientTransform="rotate(101.193 755.836 1172.08) scale(119.044 259.116)"><stop stop-color="#FFAA28"/><stop offset="1" stop-color="#FFAA28" stop-opacity="0"/></radialGradient><radialGradient id="h" cx="0" cy="0" r="1" gradientUnits="userSpaceOnUse" gradientTransform="matrix(0 350.615 -1730.64 0 1540 768.37)"><stop stop-color="#FFC400"/><stop offset="1" stop-color="#FFA800"/></radialGradient><radialGradient id="n" cx="0" cy="0" r="1" gradientUnits="userSpaceOnUse" gradientTransform="rotate(86.704 393.678 1494.8) scale(303.882 706.09)"><stop stop-color="#FFAA28"/><stop offset="1" stop-color="#FFAA28" stop-opacity="0"/></radialGradient><linearGradient id="i" x1="2035.32" y1="663.014" x2="1993.81" y2="904.374" gradientUnits="userSpaceOnUse"><stop stop-color="#FFEBA3"/><stop offset="1" stop-color="#FFEBA3" stop-opacity="0"/></linearGradient><linearGradient id="j" x1="2206.96" y1="751.686" x2="2185.08" y2="906.409" gradientUnits="userSpaceOnUse"><stop stop-color="#FFEBA3"/><stop offset="1" stop-color="#FFEBA3" stop-opacity="0"/></linearGradient><linearGradient id="k" x1="2275.08" y1="725.061" x2="2241.93" y2="828.079" gradientUnits="userSpaceOnUse"><stop stop-color="#FFEBA3"/><stop offset="1" stop-color="#FFEBA3" stop-opacity="0"/></linearGradient><linearGradient id="l" x1="-105.666" y1="1105.85" x2="1939.91" y2="871.538" gradientUnits="userSpaceOnUse"><stop stop-color="#FFEBA3"/><stop offset="1" stop-color="#FFEBA3" stop-opacity="0"/></linearGradient><linearGradient id="m" x1="1879.43" y1="745.017" x2="2281.45" y2="771.629" gradientUnits="userSpaceOnUse"><stop stop-color="#FFA800" stop-opacity="0"/><stop offset="1" stop-color="#FFA800"/></linearGradient><clipPath id="a"><path fill="#fff" d="M0 0h2389v1024H0z"/></clipPath></defs></svg>